<svg xmlns="http://www.w3.org/2000/svg" version="1.1" xmlns:xlink="http://www.w3.org/1999/xlink" xmlns:svgjs="http://svgjs.dev/svgjs" viewBox="0 0 4.589385618997632 5.375872795964157"><g transform="matrix(1,0,0,1,0.4136649774675658,3.8582078184965916)"><g><path d=" M 0.5955 0 Q 0.7545000000000001 0 0.87375 0.0645 Q 0.993 0.1289999999999999 1.059 0.24974999999999992 Q 1.125 0.37049999999999994 1.125 0.5429999999999999 Q 1.125 0.711 1.0575 0.837 Q 0.99 0.963 0.86925 1.0334999999999999 Q 0.7485 1.1039999999999999 0.594 1.1039999999999999 Q 0.435 1.1039999999999999 0.31575000000000003 1.0394999999999999 Q 0.1965 0.975 0.1305 0.8534999999999999 Q 0.0645 0.732 0.0645 0.5609999999999999 Q 0.0645 0.3929999999999999 0.13275 0.2669999999999999 Q 0.201 0.1409999999999999 0.32025 0.07050000000000001 Q 0.4395 0 0.5955 0 M 0.5895 0.026999999999999913 Q 0.5055000000000001 0.026999999999999913 0.44325000000000003 0.09449999999999992 Q 0.381 0.16199999999999992 0.34725 0.28049999999999997 Q 0.3135 0.3989999999999999 0.3135 0.5549999999999999 Q 0.3135 0.714 0.35175 0.83175 Q 0.39 0.9495 0.45525 1.01325 Q 0.5205 1.077 0.6 1.077 Q 0.684 1.077 0.74625 1.0095 Q 0.8085 0.942 0.84225 0.82275 Q 0.876 0.7035 0.876 0.5489999999999999 Q 0.876 0.38849999999999996 0.83775 0.27149999999999996 Q 0.7995 0.15449999999999997 0.7342500000000001 0.09075 Q 0.669 0.026999999999999913 0.5895 0.026999999999999913 M 2.53355126953125 0.020999999999999908 L 2.53355126953125 0.050999999999999934 Q 2.48555126953125 0.05249999999999999 2.4615512695312503 0.062249999999999917 Q 2.4375512695312502 0.07199999999999984 2.4293012695312504 0.09824999999999995 Q 2.42105126953125 0.12449999999999994 2.42105126953125 0.17999999999999994 L 2.42105126953125 0.9239999999999999 Q 2.42105126953125 0.978 2.4293012695312504 1.005 Q 2.4375512695312502 1.032 2.4615512695312503 1.041 Q 2.48555126953125 1.05 2.53355126953125 1.053 L 2.53355126953125 1.083 Q 2.49155126953125 1.08 2.4278012695312503 1.07925 Q 2.36405126953125 1.0785 2.29805126953125 1.0785 Q 2.22605126953125 1.0785 2.16305126953125 1.07925 Q 2.1000512695312503 1.08 2.06105126953125 1.083 L 2.06105126953125 1.053 Q 2.11205126953125 1.05 2.13830126953125 1.041 Q 2.16455126953125 1.032 2.17355126953125 1.005 Q 2.18255126953125 0.978 2.18255126953125 0.9239999999999999 L 2.18255126953125 0.11249999999999993 L 2.1930512695312503 0.11249999999999993 L 1.8210512695312502 1.0845 L 1.7970512695312502 1.0845 L 1.3920512695312501 0.11849999999999994 L 1.3920512695312501 0.837 Q 1.3920512695312501 0.9195 1.40105126953125 0.96375 Q 1.4100512695312502 1.008 1.4408012695312502 1.02675 Q 1.47155126953125 1.0454999999999999 1.53755126953125 1.053 L 1.53755126953125 1.083 Q 1.5090512695312501 1.08 1.4625512695312501 1.07925 Q 1.4160512695312502 1.0785 1.3755512695312502 1.0785 Q 1.3410512695312502 1.0785 1.3050512695312502 1.07925 Q 1.2690512695312501 1.08 1.2450512695312501 1.083 L 1.2450512695312501 1.053 Q 1.2930512695312502 1.0454999999999999 1.3170512695312502 1.0274999999999999 Q 1.3410512695312502 1.0095 1.34930126953125 0.9682499999999999 Q 1.3575512695312502 0.9269999999999999 1.3575512695312502 0.855 L 1.3575512695312502 0.17999999999999994 Q 1.3575512695312502 0.12449999999999994 1.34930126953125 0.09824999999999995 Q 1.3410512695312502 0.07199999999999984 1.3163012695312502 0.062249999999999917 Q 1.29155126953125 0.05249999999999999 1.2450512695312501 0.050999999999999934 L 1.2450512695312501 0.020999999999999908 Q 1.2690512695312501 0.022499999999999964 1.3050512695312502 0.02400000000000002 Q 1.3410512695312502 0.025499999999999856 1.3755512695312502 0.025499999999999856 Q 1.4400512695312502 0.025499999999999856 1.50230126953125 0.02400000000000002 Q 1.56455126953125 0.022499999999999964 1.61255126953125 0.020999999999999908 L 1.92755126953125 0.7815 L 1.8900512695312501 0.816 L 2.1915512695312502 0.025499999999999856 Q 2.2170512695312503 0.025499999999999856 2.2440512695312504 0.025499999999999856 Q 2.27105126953125 0.025499999999999856 2.29805126953125 0.025499999999999856 Q 2.36405126953125 0.025499999999999856 2.4278012695312503 0.02400000000000002 Q 2.49155126953125 0.022499999999999964 2.53355126953125 0.020999999999999908 M 3.11255419921875 0.020999999999999908 Q 3.4080541992187503 0.020999999999999908 3.5520541992187504 0.1552499999999999 Q 3.69605419921875 0.2895 3.69605419921875 0.5399999999999999 Q 3.69605419921875 0.7035 3.62555419921875 0.82575 Q 3.55505419921875 0.948 3.4208041992187503 1.0154999999999998 Q 3.28655419921875 1.083 3.09905419921875 1.083 Q 3.06305419921875 1.083 2.9963041992187502 1.0807499999999999 Q 2.9295541992187504 1.0785 2.8800541992187503 1.0785 Q 2.8140541992187504 1.0785 2.7503041992187502 1.07925 Q 2.68655419921875 1.08 2.6490541992187504 1.083 L 2.6490541992187504 1.053 Q 2.6970541992187504 1.05 2.7210541992187505 1.041 Q 2.74505419921875 1.032 2.7533041992187504 1.005 Q 2.7615541992187502 0.978 2.7615541992187502 0.9239999999999999 L 2.7615541992187502 0.17999999999999994 Q 2.7615541992187502 0.12449999999999994 2.7533041992187504 0.09824999999999995 Q 2.74505419921875 0.07199999999999984 2.7203041992187504 0.062249999999999917 Q 2.6955541992187504 0.05249999999999999 2.6490541992187504 0.050999999999999934 L 2.6490541992187504 0.020999999999999908 Q 2.68655419921875 0.022499999999999964 2.7503041992187502 0.02475000000000005 Q 2.8140541992187504 0.026999999999999913 2.87705419921875 0.025499999999999856 Q 2.9310541992187504 0.02400000000000002 2.9993041992187504 0.022499999999999964 Q 3.0675541992187503 0.020999999999999908 3.11255419921875 0.020999999999999908 M 3.11105419921875 0.04800000000000004 Q 3.04205419921875 0.04800000000000004 3.0210541992187503 0.0734999999999999 Q 3.0000541992187504 0.09899999999999998 3.0000541992187504 0.17699999999999994 L 3.0000541992187504 0.9269999999999999 Q 3.0000541992187504 1.005 3.0218041992187503 1.0305 Q 3.0435541992187503 1.056 3.11255419921875 1.056 Q 3.23855419921875 1.056 3.31130419921875 0.9967499999999999 Q 3.3840541992187503 0.9375 3.41555419921875 0.8234999999999999 Q 3.4470541992187504 0.7095 3.4470541992187504 0.5459999999999999 Q 3.4470541992187504 0.29399999999999993 3.36905419921875 0.17099999999999993 Q 3.2910541992187503 0.04800000000000004 3.11105419921875 0.04800000000000004" fill="#124ae2" fill-rule="nonzero"></path></g><g></g><g clip-path="url(#SvgjsClipPath1001)"><g clip-path="url(#ae7323d66-c5a9-4051-a6b3-2add6d26037f1c68d70a-42af-48b6-a4e5-8e4895315fbc)"><path d=" M 0.36427614896428 -2.187569162660342 L 0.36427614896428 -0.3971310981117302 C 0.36427614896428 -0.3158004698196475 0.43022214920520196 -0.24993762973035327 0.5114696173456568 -0.24993762973035327 L 3.3627817362113444 -0.24993762973035327 C 3.4440292043517986 -0.24993762973035327 3.5099752045927213 -0.3158004698196475 3.5099752045927213 -0.3971310981117302 L 3.5099752045927213 -2.187569162660342 Z" fill="#000000" transform="matrix(1,0,0,1,0,0)" fill-rule="nonzero"></path></g><g clip-path="url(#SvgjsClipPath10001c68d70a-42af-48b6-a4e5-8e4895315fbc)"><path d=" M 3.322781703278326 -1.6827870422790099 L 0.5516359705819308 -1.6827870422790099 L 0.5516359705819308 -1.8775481173915434 L 3.322781703278326 -1.8775481173915434 Z" fill="#124ae2" transform="matrix(1,0,0,1,0,0)" fill-rule="nonzero"></path></g><g clip-path="url(#SvgjsClipPath10001c68d70a-42af-48b6-a4e5-8e4895315fbc)"><path d=" M 3.322781703278326 -0.4810396911042778 L 0.5516359705819308 -0.4810396911042778 L 0.5516359705819308 -1.5432443078473996 L 3.322781703278326 -1.5432443078473996 Z M 0.686438576370751 -1.2103542208809297 L 3.1879790974895053 -1.2103542208809297 M 1.9371672568543143 -1.1205412571228015 L 1.9371672568543143 -0.5513100192298506" fill="none" transform="matrix(1,0,0,1,0,0)" fill-rule="nonzero" stroke-dasharray="none" stroke-miterlimit="4" stroke-linejoin="miter" stroke-linecap="butt" stroke-width="0.046070724001854656" stroke="#124ae2"></path></g><g clip-path="url(#SvgjsClipPath10001c68d70a-42af-48b6-a4e5-8e4895315fbc)"><path d=" M 3.304223829962112 -3.4445428410290257 L 0.25199678476342646 -2.6835442934821447 L 0.3643461496127147 -2.2329825919622017 L 3.4165731948114004 -2.9939811395090823 Z" fill="#000000" transform="matrix(1,0,0,1,0,0)" fill-rule="nonzero"></path></g><g clip-path="url(#be7323d66-c5a9-4051-a6b3-2add6d26037f1c68d70a-42af-48b6-a4e5-8e4895315fbc)"><path d=" M -0.9820035457397365 -2.041789416856639 L 2.4527601969472723 0.02207922624449621 L 2.5460658870737722 -0.13326393699641415 L -0.8886978556132366 -2.197049419945922 Z" fill="#124ae2" transform="matrix(1,0,0,1,0,0)" fill-rule="nonzero"></path></g><g clip-path="url(#SvgjsClipPath10001c68d70a-42af-48b6-a4e5-8e4895315fbc)"><path d=" M 0.2520099442666197 -2.6835631810709017 L 0.258246955638712 -2.658615135582533 L 0.7899729651474822 -2.3391138330281547 L 1.0385386583632648 -2.4010681459909375 L 0.47562759199403337 -2.7393636428132204 Z" fill="#124ae2" transform="matrix(1,0,0,1,0,0)" fill-rule="nonzero"></path></g><g clip-path="url(#SvgjsClipPath10001c68d70a-42af-48b6-a4e5-8e4895315fbc)"><path d=" M 1.829042212280812 -3.076745360923046 L 2.3919532786500435 -2.738533024252391 L 2.640435811714198 -2.800487337215174 L 2.0775247453449666 -3.1386996738858293 Z" fill="#124ae2" transform="matrix(1,0,0,1,0,0)" fill-rule="nonzero"></path></g><g clip-path="url(#ce7323d66-c5a9-4051-a6b3-2add6d26037f1c68d70a-42af-48b6-a4e5-8e4895315fbc)"><path d=" M 0.8218233032209665 -5.043870890623703 L 4.256587045907975 -2.980002247522567 L 4.349892736034475 -3.1353454107634775 L 0.9151289933474664 -5.199130893712985 Z" fill="#124ae2" transform="matrix(1,0,0,1,0,0)" fill-rule="nonzero"></path></g><g clip-path="url(#ce7323d66-c5a9-4051-a6b3-2add6d26037f1c68d70a-42af-48b6-a4e5-8e4895315fbc)"><path d=" M -0.6813795976048906 -2.542164049201692 L 2.753384145082118 -0.4782954061005569 L 2.846689835208618 -0.6336385693414672 L -0.5880739074783907 -2.697424052290975 Z" fill="#124ae2" transform="matrix(1,0,0,1,0,0)" fill-rule="nonzero"></path></g><g clip-path="url(#SvgjsClipPath10001c68d70a-42af-48b6-a4e5-8e4895315fbc)"><path d=" M 1.0280832094792198 -2.876973387244998 L 1.5909942758484514 -2.5387610505743425 L 1.8395599690642337 -2.6007153635371254 L 1.2766489026950025 -2.9389277002077807 Z" fill="#124ae2" transform="matrix(1,0,0,1,0,0)" fill-rule="nonzero"></path></g><g clip-path="url(#SvgjsClipPath10001c68d70a-42af-48b6-a4e5-8e4895315fbc)"><path d=" M 2.6300012150824044 -3.2764549643314482 L 3.192912281451636 -2.9382426276607934 L 3.4165299291790494 -2.993959929251484 L 3.410376077958585 -3.018907974739853 L 2.878483748146559 -3.338409277294231 Z" fill="#124ae2" transform="matrix(1,0,0,1,0,0)" fill-rule="nonzero"></path></g></g></g><defs><clipPath id="SvgjsClipPath1001"><path d=" M 0.2520099442666197 -3.4445428410290257 h 3.258035775529261 v 3.1945428410290257 h -3.258035775529261 Z"></path></clipPath><clipPath id="ae7323d66-c5a9-4051-a6b3-2add6d26037f1c68d70a-42af-48b6-a4e5-8e4895315fbc"><path d=" M 0.2520099442666197 -0.24993762973035327 L 3.5099752045927204 -0.24993762973035327 L 3.5099752045927204 -3.444534854515997 L 0.2520099442666197 -3.444534854515997 Z"></path></clipPath><clipPath id="SvgjsClipPath10001c68d70a-42af-48b6-a4e5-8e4895315fbc"><path d=" M 0.2520099442666197 -3.4445428410290257 L 3.5100457197958805 -3.4445428410290257 L 3.5100457197958805 -0.25 L 0.2520099442666197 -0.25 Z"></path></clipPath><clipPath id="be7323d66-c5a9-4051-a6b3-2add6d26037f1c68d70a-42af-48b6-a4e5-8e4895315fbc"><path d=" M 3.304236989465305 -3.444534854515997 L 0.2520099442666197 -2.683536306969116 L 0.36435930911590786 -2.232974605449173 L 3.416586354314593 -2.9939731529960536 Z"></path></clipPath><clipPath id="ce7323d66-c5a9-4051-a6b3-2add6d26037f1c68d70a-42af-48b6-a4e5-8e4895315fbc"><path d=" M 3.304236989465305 -3.444534854515997 L 0.2520099442666197 -2.683536306969116 L 0.36435930911590786 -2.232974605449173 L 3.416586354314593 -2.9939731529960536 Z"></path></clipPath></defs></svg>